<svg width="29" height="29" viewBox="0 0 29 29" fill="none" xmlns="http://www.w3.org/2000/svg">
<path d="M18.2514 14.501H2M2 14.501L6.37537 10.7507M2 14.501L6.37537 18.2513" stroke="#636363" stroke-width="3" stroke-linecap="round" stroke-linejoin="round"/>
<path d="M10.7532 8.25053C10.7683 5.53151 10.8889 4.059 11.8495 3.09844C12.948 2 14.7159 2 18.2517 2H19.5018C23.0376 2 24.8056 2 25.9039 3.09844C27.0024 4.19689 27.0024 5.9648 27.0024 9.50064V19.5015C27.0024 23.0373 27.0024 24.8052 25.9039 25.9037C24.9434 26.8642 23.4709 26.9849 20.7516 27M10.7532 20.7516C10.7683 23.4706 10.8889 24.9431 11.8495 25.9037C12.6512 26.7053 13.8094 26.922 15.7512 26.9805" stroke="#636363" stroke-width="3" stroke-linecap="round"/>
</svg>
